<svg width="800" height="600" viewBox="0 0 800 600" xmlns="http://www.w3.org/2000/svg">
  <!-- 背景 - 古老纸张效果 -->
  <rect x="0" y="0" width="800" height="600" fill="#f5e9d0"/>
  
  <!-- 添加纸张纹理 -->
  <filter id="paperTexture">
    <feTurbulence type="fractalNoise" baseFrequency="0.04" numOctaves="5" seed="8"/>
    <feDisplacementMap in="SourceGraphic" scale="3"/>
  </filter>
  <rect x="0" y="0" width="800" height="600" fill="#e8d7b8" opacity="0.3" filter="url(#paperTexture)"/>
  
  <!-- 主要地图区域 -->
  <rect x="100" y="100" width="600" height="400" fill="#e8d7b8" stroke="#8d6e63" stroke-width="3"/>
  
  <!-- 标题 -->
  <text x="400" y="70" font-family="serif" font-size="24" fill="#5d4037" text-anchor="middle" font-weight="bold">
    东区旧图书馆地下室地图
  </text>
  
  <!-- 图书馆地下室布局 -->
  <!-- 墙壁 -->
  <g fill="none" stroke="#5d4037" stroke-width="2">
    <!-- 外墙 -->
    <rect x="150" y="150" width="500" height="300" rx="5"/>
    
    <!-- 入口楼梯 -->
    <polyline points="350,150 350,120 400,120 400,150" fill="#e8d7b8" stroke-linejoin="round"/>
    <text x="375" y="140" font-family="serif" font-size="12" fill="#5d4037" text-anchor="middle">入口</text>
    
    <!-- 内部隔断墙 -->
    <line x1="250" y1="150" x2="250" y2="320"/>
    <line x1="250" y1="320" x2="150" y2="320"/>
    
    <line x1="250" y1="230" x2="350" y2="230"/>
    <line x1="350" y1="230" x2="350" y2="320"/>
    <line x1="350" y1="320" x2="250" y2="320"/>
    
    <line x1="450" y1="150" x2="450" y2="230"/>
    <line x1="450" y1="230" x2="650" y2="230"/>
    
    <line x1="450" y1="320" x2="650" y2="320"/>
    <line x1="450" y1="320" x2="450" y2="450"/>
    
    <line x1="550" y1="230" x2="550" y2="320"/>
  </g>
  
  <!-- 书架 -->
  <g fill="#8d6e63">
    <!-- 左上房间书架 -->
    <rect x="170" y="170" width="60" height="15" rx="2"/>
    <rect x="170" y="195" width="60" height="15" rx="2"/>
    
    <!-- 左下房间书架 -->
    <rect x="170" y="340" width="60" height="15" rx="2"/>
    <rect x="170" y="365" width="60" height="15" rx="2"/>
    <rect x="170" y="390" width="60" height="15" rx="2"/>
    <rect x="170" y="415" width="60" height="15" rx="2"/>
    
    <!-- 中间房间书架 -->
    <rect x="270" y="250" width="60" height="15" rx="2"/>
    <rect x="270" y="275" width="60" height="15" rx="2"/>
    
    <!-- 右上房间书架 -->
    <rect x="470" y="170" width="60" height="15" rx="2"/>
    <rect x="470" y="195" width="60" height="15" rx="2"/>
    <rect x="560" y="170" width="60" height="15" rx="2"/>
    <rect x="560" y="195" width="60" height="15" rx="2"/>
    
    <!-- 右中房间书架 -->
    <rect x="470" y="250" width="60" height="15" rx="2"/>
    <rect x="470" y="275" width="60" height="15" rx="2"/>
    <rect x="560" y="250" width="60" height="15" rx="2"/>
    <rect x="560" y="275" width="60" height="15" rx="2"/>
    
    <!-- 右下房间书架 -->
    <rect x="470" y="340" width="60" height="15" rx="2"/>
    <rect x="470" y="365" width="60" height="15" rx="2"/>
    <rect x="470" y="390" width="60" height="15" rx="2"/>
    <rect x="470" y="415" width="60" height="15" rx="2"/>
    <rect x="560" y="340" width="60" height="15" rx="2"/>
    <rect x="560" y="365" width="60" height="15" rx="2"/>
    <rect x="560" y="390" width="60" height="15" rx="2"/>
    <rect x="560" y="415" width="60" height="15" rx="2"/>
  </g>
  
  <!-- 危险区域标记 -->
  <g>
    <!-- 左下房间 - 地板不稳 -->
    <circle cx="200" cy="370" r="15" fill="#e74c3c" opacity="0.3"/>
    <text x="200" y="370" font-family="serif" font-size="12" fill="#c0392b" text-anchor="middle" dominant-baseline="middle">!</text>
    <text x="200" y="400" font-family="serif" font-size="10" fill="#c0392b" text-anchor="middle">地板不稳</text>
    
    <!-- 右中房间 - 有毒霉菌 -->
    <circle cx="515" cy="275" r="15" fill="#e74c3c" opacity="0.3"/>
    <text x="515" y="275" font-family="serif" font-size="12" fill="#c0392b" text-anchor="middle" dominant-baseline="middle">!</text>
    <text x="515" y="300" font-family="serif" font-size="10" fill="#c0392b" text-anchor="middle">有毒霉菌</text>
  </g>
  
  <!-- 特殊物品位置 -->
  <g>
    <!-- 右上角 - 可能的手稿位置 -->
    <circle cx="600" cy="180" r="10" fill="#3498db" opacity="0.5"/>
    <text x="600" y="180" font-family="serif" font-size="10" fill="#2980b9" text-anchor="middle" dominant-baseline="middle">?</text>
    <text x="600" y="200" font-family="serif" font-size="8" fill="#2980b9" text-anchor="middle">古代手稿</text>
    
    <!-- 右下角 - 宝箱位置 -->
    <circle cx="600" cy="400" r="10" fill="#3498db" opacity="0.5"/>
    <text x="600" y="400" font-family="serif" font-size="10" fill="#2980b9" text-anchor="middle" dominant-baseline="middle">?</text>
    <text x="600" y="420" font-family="serif" font-size="8" fill="#2980b9" text-anchor="middle">密封箱</text>
    
    <!-- 左上角 - 日记位置 -->
    <circle cx="190" cy="180" r="10" fill="#3498db" opacity="0.5"/>
    <text x="190" y="180" font-family="serif" font-size="10" fill="#2980b9" text-anchor="middle" dominant-baseline="middle">?</text>
    <text x="190" y="200" font-family="serif" font-size="8" fill="#2980b9" text-anchor="middle">管理员日记</text>
  </g>
  
  <!-- 房间标记 -->
  <g>
    <text x="200" y="220" font-family="serif" font-size="10" fill="#5d4037" text-anchor="middle">历史区</text>
    <text x="200" y="350" font-family="serif" font-size="10" fill="#5d4037" text-anchor="middle">禁书区</text>
    <text x="300" y="300" font-family="serif" font-size="10" fill="#5d4037" text-anchor="middle">备用储藏室</text>
    <text x="500" y="220" font-family="serif" font-size="10" fill="#5d4037" text-anchor="middle">魔法学区</text>
    <text x="600" cy="300" font-family="serif" font-size="10" fill="#5d4037" text-anchor="middle">稀有文献区</text>
    <text x="500" y="380" font-family="serif" font-size="10" fill="#5d4037" text-anchor="middle">古代文物保管室</text>
  </g>
  
  <!-- 指南针 -->
  <g transform="translate(640, 160)">
    <circle cx="0" cy="0" r="25" fill="#f5f0e0" stroke="#5d4037" stroke-width="1"/>
    <path d="M0,-20 L5,-5 L0,-10 L-5,-5 Z" fill="#e74c3c"/>
    <path d="M0,20 L5,5 L0,10 L-5,5 Z" fill="#5d4037"/>
    <path d="M-20,0 L-5,5 L-10,0 L-5,-5 Z" fill="#5d4037"/>
    <path d="M20,0 L5,5 L10,0 L5,-5 Z" fill="#5d4037"/>
    <text x="0" y="-12" font-family="serif" font-size="8" fill="#5d4037" text-anchor="middle">北</text>
    <text x="0" y="16" font-family="serif" font-size="8" fill="#5d4037" text-anchor="middle">南</text>
    <text x="-12" y="3" font-family="serif" font-size="8" fill="#5d4037" text-anchor="middle">西</text>
    <text x="12" y="3" font-family="serif" font-size="8" fill="#5d4037" text-anchor="middle">东</text>
  </g>
  
  <!-- 图例 -->
  <g transform="translate(650, 350)">
    <rect x="0" y="0" width="120" height="100" fill="#f5f0e0" stroke="#8d6e63" stroke-width="1"/>
    <text x="60" y="20" font-family="serif" font-size="12" fill="#5d4037" text-anchor="middle" font-weight="bold">图例</text>
    
    <rect x="10" y="30" width="20" height="10" fill="#8d6e63"/>
    <text x="40" y="38" font-family="serif" font-size="10" fill="#5d4037" text-anchor="left">书架</text>
    
    <circle cx="20" cy="55" r="10" fill="#e74c3c" opacity="0.3"/>
    <text x="20" y="55" font-family="serif" font-size="10" fill="#c0392b" text-anchor="middle" dominant-baseline="middle">!</text>
    <text x="40" y="58" font-family="serif" font-size="10" fill="#5d4037" text-anchor="left">危险区域</text>
    
    <circle cx="20" cy="75" r="10" fill="#3498db" opacity="0.5"/>
    <text x="20" y="75" font-family="serif" font-size="10" fill="#2980b9" text-anchor="middle" dominant-baseline="middle">?</text>
    <text x="40" y="78" font-family="serif" font-size="10" fill="#5d4037" text-anchor="left">物品位置</text>
  </g>
  
  <!-- 注释 -->
  <g transform="translate(400, 510)">
    <rect x="-250" y="-15" width="500" height="55" rx="5" fill="#f5f0e0" stroke="#8d6e63" stroke-width="1"/>
    <text x="0" y="0" font-family="serif" font-size="12" fill="#5d4037" text-anchor="middle" font-style="italic">
      冒险者注意: 此地图根据最后一位探索者的记录绘制，准确性无法保证。
    </text>
    <text x="0" y="20" font-family="serif" font-size="12" fill="#5d4037" text-anchor="middle" font-style="italic">
      地下室自上次塌方后，可能有新的危险区域形成。书架内容自百年前已无人整理。
    </text>
  </g>
</svg> 