<svg xmlns="http://www.w3.org/2000/svg" width="100" height="100" viewBox="0 0 100 100" fill="none">
  <rect width="100" height="100" rx="10" fill="#F9F5FF"/>
  <path d="M25 70 L25 40 L35 40 L35 70 Z" fill="#D4C5F9" stroke="#8A63D2" stroke-width="1"/>
  <path d="M35 70 L35 40 L65 40 L65 70 Z" fill="#D4C5F9" stroke="#8A63D2" stroke-width="1"/>
  <path d="M65 70 L65 40 L75 40 L75 70 Z" fill="#D4C5F9" stroke="#8A63D2" stroke-width="1"/>
  <path d="M30 40 L30 30 L40 30 L40 40 Z" fill="#D4C5F9" stroke="#8A63D2" stroke-width="1"/>
  <path d="M60 40 L60 30 L70 30 L70 40 Z" fill="#D4C5F9" stroke="#8A63D2" stroke-width="1"/>
  <path d="M45 40 L45 25 L55 25 L55 40 Z" fill="#D4C5F9" stroke="#8A63D2" stroke-width="1"/>
  <path d="M20 70 L80 70 L80 75 L20 75 Z" fill="#D4C5F9" stroke="#8A63D2" stroke-width="1"/>
  <circle cx="50" cy="55" r="8" fill="#FDE68A"/>
  <path d="M47 52 L53 58 M53 52 L47 58" stroke="#9F7AEA" stroke-width="2"/>
</svg> 